<svg width="30" height="30" xmlns="http://www.w3.org/2000/svg">
    <g fill="none" fill-rule="evenodd">
        <path d="M0 0h30v30H0z"/>
        <g fill="#595959" fill-rule="nonzero">
            <path d="M19.629 14.487c-.014 0-1.963-.925-5.484-4.103-3.522-3.192-6.278-1.603-7.434.912-1.37 2.984-2.056 13.36 10.66 10.653 10.605-2.266 3.83-6.55 2.258-7.462z" fill-opacity=".18"/>
            <path d="M15.973 7.758h-1.331a.483.483 0 0 1-.47-.483c0-.263.215-.484.47-.484h1.33c.256 0 .471.221.471.484a.483.483 0 0 1-.47.483zM23.863 19.973a.767.767 0 0 1-.175-.028L16.591 17.1a.484.484 0 0 1-.269-.622.463.463 0 0 1 .605-.276l6.452 2.584v-.774l-6.909-5.486a.493.493 0 0 1-.08-.677.462.462 0 0 1 .658-.083l7.097 5.638a.489.489 0 0 1 .188.387v1.713c0 .166-.08.304-.201.4-.08.028-.175.07-.27.07zM6.752 19.973a.472.472 0 0 1-.47-.484v-1.713c0-.152.066-.29.187-.387l7.098-5.637a.462.462 0 0 1 .658.082.493.493 0 0 1-.08.677l-6.91 5.486v.774l6.453-2.584a.463.463 0 0 1 .604.276.484.484 0 0 1-.268.622l-7.098 2.846a.454.454 0 0 1-.174.042z"/>
            <path d="M8.136 19.448a.478.478 0 0 1-.443-.304.484.484 0 0 1 .268-.622l5.713-2.321a.463.463 0 0 1 .605.276.484.484 0 0 1-.269.622L8.297 19.42c-.053.014-.107.028-.16.028zM22.586 19.448a.767.767 0 0 1-.175-.028L16.698 17.1a.484.484 0 0 1-.268-.622.463.463 0 0 1 .605-.276l5.712 2.321a.484.484 0 0 1 .27.622.468.468 0 0 1-.431.304z"/>
            <path d="M18.85 25.997a.42.42 0 0 1-.189-.041l-3.522-1.603c-.027-.014-.067-.014-.08 0l-3.307 1.603a.487.487 0 0 1-.457-.028.491.491 0 0 1-.215-.414v-2.722c0-.484.242-.926.632-1.189l1.666-1.091V5.92c0-1.064.834-1.921 1.869-1.921h.107c1.035 0 1.882.87 1.882 1.934v14.633l1.573 1.285c.322.276.51.677.51 1.092V25.5c0 .166-.08.318-.214.4a.395.395 0 0 1-.256.097zm-3.765-2.625c.148 0 .296.028.43.097l2.864 1.298v-1.81a.424.424 0 0 0-.162-.345l-1.747-1.437a.514.514 0 0 1-.175-.373V5.934a.948.948 0 0 0-.94-.967h-.108c-.498 0-.928.442-.928.954v14.867a.51.51 0 0 1-.215.415l-1.882 1.23a.452.452 0 0 0-.201.359v1.962l2.634-1.272a.802.802 0 0 1 .43-.11z"/>
        </g>
    </g>
</svg>
