<svg width="30" height="30" xmlns="http://www.w3.org/2000/svg">
    <g fill="none" fill-rule="evenodd">
        <path d="M0 0h30v30H0z"/>
        <g fill="#595959" fill-rule="nonzero">
            <path d="M11.579 24.328H5.552a.802.802 0 0 1-.808-.796V8.184c0-.433.354-.796.808-.796h6.027c.44 0 .808.35.808.796v15.334c0 .447-.354.81-.808.81z" opacity=".18"/>
            <path d="M4.602 25.25H1.496A.499.499 0 0 1 1 24.761c0-.265.227-.489.496-.489h3.106c.27 0 .496.224.496.49a.49.49 0 0 1-.496.488zM27.504 25.25h-6.665a.499.499 0 0 1-.497-.489c0-.265.227-.489.497-.489h6.665c.27 0 .496.224.496.49a.49.49 0 0 1-.496.488z"/>
            <path d="M17.719 25.25H4.815a.499.499 0 0 1-.497-.489V6.006A1.01 1.01 0 0 1 5.34 5h11.855a1.01 1.01 0 0 1 1.021 1.006V24.76a.49.49 0 0 1-.496.489zm-12.408-.978h11.912V6.006c0-.028-.029-.028-.029-.028H5.34c-.028 0-.028.028-.028.028v18.266z"/>
            <path d="M25.277 25.25H17.72a.499.499 0 0 1-.496-.489c0-.265.227-.489.496-.489h7.062V13.1a.937.937 0 0 0-.936-.922H17.72a.499.499 0 0 1-.496-.489c0-.265.227-.488.496-.488h6.126c1.064 0 1.929.852 1.929 1.899v11.661a.49.49 0 0 1-.497.489zM9.04 12.192H7.027a.415.415 0 0 1-.426-.419V9.455c0-.237.185-.419.426-.419H9.04c.242 0 .426.182.426.419v2.318a.423.423 0 0 1-.426.42zm-1.588-.838h1.163v-1.48H7.452v1.48zM14.628 12.192h-2.014a.415.415 0 0 1-.425-.419V9.455c0-.237.184-.419.425-.419h2.014c.24 0 .425.182.425.419v2.318a.423.423 0 0 1-.425.42zm-1.589-.838h1.163v-1.48H13.04v1.48zM9.04 18.016H7.027a.415.415 0 0 1-.426-.42V15.28c0-.238.185-.42.426-.42H9.04c.242 0 .426.182.426.42v2.318a.423.423 0 0 1-.426.419zm-1.588-.838h1.163v-1.48H7.452v1.48zM14.628 18.016h-2.014a.415.415 0 0 1-.425-.42V15.28c0-.238.184-.42.425-.42h2.014c.24 0 .425.182.425.42v2.318a.423.423 0 0 1-.425.419zm-1.589-.838h1.163v-1.48H13.04v1.48z"/>
            <path d="M22.186 16.773h-2.014a.415.415 0 0 1-.425-.419v-2.318c0-.238.184-.42.425-.42h2.014c.241 0 .425.182.425.42v2.318a.423.423 0 0 1-.425.419zm-1.588-.838h1.163v-1.48h-1.163v1.48zM22.186 21.647h-2.014a.415.415 0 0 1-.425-.42V18.91c0-.238.184-.42.425-.42h2.014c.241 0 .425.182.425.42v2.318a.423.423 0 0 1-.425.419zm-1.588-.838h1.163v-1.48h-1.163v1.48z"/>
        </g>
    </g>
</svg>
